<svg width="82" height="10" viewBox="0 0 82 10" fill="none" xmlns="http://www.w3.org/2000/svg">
<path d="M0.708 9H2.256V0.24H0.708V9ZM7.63284 3V6.24C7.63284 7.284 7.06884 7.728 6.31284 7.728C5.61684 7.728 5.12484 7.308 5.12484 6.492V3H3.57684V6.684C3.57684 8.28 4.57284 9.168 5.84484 9.168C6.64884 9.168 7.27284 8.868 7.63284 8.328V9H9.18084V3H7.63284ZM12.4826 7.548L15.0266 4.032V3H10.5266V4.452H12.9386L10.4066 7.968V9H15.1466V7.548H12.4826ZM20.9142 0.599999L18.7062 1.38L19.1142 2.796L20.6982 2.352V9H22.3542V0.599999H20.9142ZM26.9948 9.168C29.1428 9.168 30.3548 7.392 30.3548 4.8C30.3548 2.208 29.1428 0.431999 26.9948 0.431999C24.8588 0.431999 23.6348 2.208 23.6348 4.8C23.6348 7.392 24.8588 9.168 26.9948 9.168ZM26.9948 7.548C25.8668 7.548 25.2908 6.576 25.2908 4.8C25.2908 3.024 25.8668 2.04 26.9948 2.04C28.1228 2.04 28.7108 3.024 28.7108 4.8C28.7108 6.576 28.1228 7.548 26.9948 7.548ZM34.5534 9.168C36.7014 9.168 37.9134 7.392 37.9134 4.8C37.9134 2.208 36.7014 0.431999 34.5534 0.431999C32.4174 0.431999 31.1934 2.208 31.1934 4.8C31.1934 7.392 32.4174 9.168 34.5534 9.168ZM34.5534 7.548C33.4254 7.548 32.8494 6.576 32.8494 4.8C32.8494 3.024 33.4254 2.04 34.5534 2.04C35.6814 2.04 36.2694 3.024 36.2694 4.8C36.2694 6.576 35.6814 7.548 34.5534 7.548ZM40.6657 4.392C41.8297 4.392 42.6817 3.516 42.6817 2.412C42.6817 1.296 41.8177 0.431999 40.6657 0.431999C39.5017 0.431999 38.6377 1.32 38.6377 2.412C38.6377 3.516 39.5017 4.392 40.6657 4.392ZM39.4897 7.728L40.2097 8.148L45.6937 2.052L44.9617 1.644L39.4897 7.728ZM40.6537 3.18C40.2217 3.18 39.9097 2.844 39.9097 2.412C39.9097 1.992 40.2217 1.656 40.6537 1.656C41.0977 1.656 41.4097 1.992 41.4097 2.412C41.4097 2.832 41.0977 3.18 40.6537 3.18ZM44.7217 9.144C45.8857 9.144 46.7377 8.256 46.7377 7.164C46.7377 6.072 45.8857 5.184 44.7217 5.184C43.5577 5.184 42.7057 6.072 42.7057 7.164C42.7057 8.256 43.5577 9.144 44.7217 9.144ZM44.7217 7.932C44.2777 7.932 43.9777 7.596 43.9777 7.164C43.9777 6.732 44.2777 6.396 44.7217 6.396C45.1657 6.396 45.4657 6.732 45.4657 7.164C45.4657 7.572 45.1657 7.932 44.7217 7.932ZM54.9294 3L53.4654 7.2L52.0134 3H50.3094L52.5894 9H54.3534L56.6334 3H54.9294ZM58.4535 6.636H62.9775C63.0135 6.432 63.0375 6.228 63.0375 6C63.0375 4.236 61.7775 2.832 60.0015 2.832C58.1175 2.832 56.8335 4.212 56.8335 6C56.8335 7.788 58.1055 9.168 60.1215 9.168C61.2735 9.168 62.1735 8.7 62.7375 7.884L61.4895 7.164C61.2255 7.512 60.7455 7.764 60.1455 7.764C59.3295 7.764 58.6695 7.428 58.4535 6.636ZM58.4295 5.436C58.6095 4.668 59.1735 4.224 60.0015 4.224C60.6495 4.224 61.2975 4.572 61.4895 5.436H58.4295ZM65.6662 4.032V3H64.1182V9H65.6662V6.132C65.6662 4.872 66.6862 4.512 67.4902 4.608V2.88C66.7342 2.88 65.9782 3.216 65.6662 4.032ZM72.7208 0.599999V3.708C72.2888 3.156 71.6528 2.832 70.7768 2.832C69.1688 2.832 67.8488 4.212 67.8488 6C67.8488 7.788 69.1688 9.168 70.7768 9.168C71.6528 9.168 72.2888 8.844 72.7208 8.292V9H74.2688V0.599999H72.7208ZM71.0648 7.692C70.1048 7.692 69.3968 7.008 69.3968 6C69.3968 4.992 70.1048 4.308 71.0648 4.308C72.0128 4.308 72.7208 4.992 72.7208 6C72.7208 7.008 72.0128 7.692 71.0648 7.692ZM76.9926 6.636H81.5166C81.5526 6.432 81.5766 6.228 81.5766 6C81.5766 4.236 80.3166 2.832 78.5406 2.832C76.6566 2.832 75.3726 4.212 75.3726 6C75.3726 7.788 76.6446 9.168 78.6606 9.168C79.8126 9.168 80.7126 8.7 81.2766 7.884L80.0286 7.164C79.7646 7.512 79.2846 7.764 78.6846 7.764C77.8686 7.764 77.2086 7.428 76.9926 6.636ZM76.9686 5.436C77.1486 4.668 77.7126 4.224 78.5406 4.224C79.1886 4.224 79.8366 4.572 80.0286 5.436H76.9686Z" fill="#21A36B"/>
</svg>
