<svg xmlns="http://www.w3.org/2000/svg" viewBox="0 0 50 62.5" style="enable-background:new 0 0 91 91" xml:space="preserve" width="50" height="62.5"><path fill="#fff" d="M9.066 21.319c2.033-.824 3.736-2.308 5.22-4.011 1.154 1.154 2.308 2.308 3.352 3.516 1.593 1.868 4.56-1.099 2.692-2.692-1.703-1.429-3.297-3.077-4.945-4.615a1.75 1.75 0 0 0-2.692.33c-1.374 2.033-2.912 3.791-4.78 5.385-.934.824 0 2.582 1.154 2.088zm21.484 0c2.033-.824 3.736-2.308 5.22-4.011 1.154 1.154 2.308 2.308 3.352 3.516 1.593 1.868 4.56-1.099 2.692-2.692-1.703-1.429-3.297-3.077-4.945-4.615a1.75 1.75 0 0 0-2.692.33c-1.374 2.033-2.912 3.791-4.78 5.385-.934.824.055 2.582 1.154 2.088zM11.758 32.143c.659.879 1.264 1.758 2.198 2.418 1.044.714 2.143 1.209 3.297 1.648 2.253.879 4.67 1.374 7.143 1.538 2.473.165 5.055-.165 7.473-.824 2.363-.604 5.22-1.593 6.923-3.352 1.319-1.374-.33-3.132-1.923-2.473-2.033.879-3.736 2.033-5.879 2.692-2.143.604-4.341.824-6.593.824-4.341 0-8.132-1.703-12.033-3.242-.44-.165-.879.44-.604.769z"/></svg>